<svg viewBox="0 0 1200 1200" xmlns="http://www.w3.org/2000/svg"><path d="M0 1150v-400q0 -21 14.5 -35.5t35.5 -14.5h400q21 0 35.5 14.5t14.5 35.5v400q0 21 -14.5 35.5t-35.5 14.5h-400q-21 0 -35.5 -14.5t-14.5 -35.5zM0 550v-400q0 -21 14.5 -35.5t35.5 -14.5h400q21 0 35.5 14.5t14.5 35.5v400q0 21 -14.5 35.5t-35.5 14.5h-400q-21 0 -35.5 -14.5t-14.5 -35.5zM600 1150v-400q0 -21 14.5 -35.5t35.5 -14.5h400q21 0 35.5 14.5t14.5 35.5v400q0 21 -14.5 35.5t-35.5 14.5h-400q-21 0 -35.5 -14.5t-14.5 -35.5zM600 550v-400q0 -21 14.5 -35.5t35.5 -14.5h400q21 0 35.5 14.5t14.5 35.5v400q0 21 -14.5 35.5t-35.5 14.5h-400q-21 0 -35.5 -14.5t-14.5 -35.5z"/></svg>
